<svg id="visual" viewBox="0 0 960 540" width="960" height="540" xmlns="http://www.w3.org/2000/svg" xmlns:xlink="http://www.w3.org/1999/xlink" version="1.1"><rect x="0" y="0" width="960" height="540" fill="#002233"></rect><path d="M0 103L22.8 114.8C45.7 126.7 91.3 150.3 137 152.8C182.7 155.3 228.3 136.7 274 126C319.7 115.3 365.3 112.7 411.2 109.2C457 105.7 503 101.3 548.8 108.5C594.7 115.7 640.3 134.3 686 135.3C731.7 136.3 777.3 119.7 823 110.7C868.7 101.7 914.3 100.3 937.2 99.7L960 99L960 0L937.2 0C914.3 0 868.7 0 823 0C777.3 0 731.7 0 686 0C640.3 0 594.7 0 548.8 0C503 0 457 0 411.2 0C365.3 0 319.7 0 274 0C228.3 0 182.7 0 137 0C91.3 0 45.7 0 22.8 0L0 0Z" fill="#2b1e3f" stroke-linecap="round" stroke-linejoin="miter"></path></svg>